<?xml version="1.0" encoding="UTF-8" standalone="no"?>
<!DOCTYPE svg PUBLIC "-//W3C//DTD SVG 1.1//EN"
 "http://www.w3.org/Graphics/SVG/1.1/DTD/svg11.dtd">
<!-- Generated by graphviz version 2.26.3 (20100126.1600)
 -->
<!-- Title: models_diagram Pages: 1 -->
<svg width="1393pt" height="1188pt"
 viewBox="0.00 0.00 1393.00 1188.00" xmlns="http://www.w3.org/2000/svg" xmlns:xlink="http://www.w3.org/1999/xlink">
<g id="graph1" class="graph" transform="scale(1 1) rotate(0) translate(4 1184)">
<title>models_diagram</title>
<polygon fill="white" stroke="white" points="-4,5 -4,-1184 1390,-1184 1390,5 -4,5"/>
<!-- _diagram_info -->
<g id="node1" class="node"><title>_diagram_info</title>
<text text-anchor="start" x="8" y="-1163.8" font-family="Times Roman,serif" font-size="13.00">Models diagram</text>
<text text-anchor="start" x="8" y="-1146.8" font-family="Times Roman,serif" font-size="13.00">Date: Apr 02 2015 &#45; 10:36</text>
<text text-anchor="start" x="8" y="-1129.8" font-family="Times Roman,serif" font-size="13.00">Migration version: 20150401205224</text>
<text text-anchor="start" x="8" y="-1112.8" font-family="Times Roman,serif" font-size="13.00">Generated by RailRoady 1.3.0</text>
<text text-anchor="start" x="8" y="-1095.8" font-family="Times Roman,serif" font-size="13.00">http://railroady.prestonlee.com</text>
</g>
<!-- Description -->
<g id="node2" class="node"><title>Description</title>
<polyline fill="none" stroke="black" points="223.5,-129 364.5,-129 "/>
<path fill="none" stroke="black" d="M364.5,-129C370.5,-129 376.5,-135 376.5,-141"/>
<polyline fill="none" stroke="black" points="376.5,-141 376.5,-259 "/>
<path fill="none" stroke="black" d="M376.5,-259C376.5,-265 370.5,-271 364.5,-271"/>
<polyline fill="none" stroke="black" points="364.5,-271 223.5,-271 "/>
<path fill="none" stroke="black" d="M223.5,-271C217.5,-271 211.5,-265 211.5,-259"/>
<polyline fill="none" stroke="black" points="211.5,-259 211.5,-141 "/>
<path fill="none" stroke="black" d="M211.5,-141C211.5,-135 217.5,-129 223.5,-129"/>
<text text-anchor="middle" x="294" y="-254.4" font-family="Times Roman,serif" font-size="14.00">Description</text>
<polyline fill="none" stroke="black" points="211.5,-245 376.5,-245 "/>
<text text-anchor="start" x="219.5" y="-228.4" font-family="Times Roman,serif" font-size="14.00">id :integer</text>
<text text-anchor="start" x="219.5" y="-210.4" font-family="Times Roman,serif" font-size="14.00">name :string</text>
<text text-anchor="start" x="219.5" y="-192.4" font-family="Times Roman,serif" font-size="14.00">post_id :integer</text>
<text text-anchor="start" x="219.5" y="-174.4" font-family="Times Roman,serif" font-size="14.00">created_at :datetime</text>
<text text-anchor="start" x="219.5" y="-156.4" font-family="Times Roman,serif" font-size="14.00">updated_at :datetime</text>
<text text-anchor="start" x="219.5" y="-138.4" font-family="Times Roman,serif" font-size="14.00">user_id :integer</text>
</g>
<!-- Characteristic -->
<g id="node4" class="node"><title>Characteristic</title>
<polyline fill="none" stroke="black" points="340,-1 486,-1 "/>
<path fill="none" stroke="black" d="M486,-1C492,-1 498,-7 498,-13"/>
<polyline fill="none" stroke="black" points="498,-13 498,-77 "/>
<path fill="none" stroke="black" d="M498,-77C498,-83 492,-89 486,-89"/>
<polyline fill="none" stroke="black" points="486,-89 340,-89 "/>
<path fill="none" stroke="black" d="M340,-89C334,-89 328,-83 328,-77"/>
<polyline fill="none" stroke="black" points="328,-77 328,-13 "/>
<path fill="none" stroke="black" d="M328,-13C328,-7 334,-1 340,-1"/>
<text text-anchor="middle" x="413" y="-72.4" font-family="Times Roman,serif" font-size="14.00">Characteristic</text>
<polyline fill="none" stroke="black" points="328,-63 498,-63 "/>
<text text-anchor="start" x="336" y="-46.4" font-family="Times Roman,serif" font-size="14.00">id :integer</text>
<text text-anchor="start" x="336" y="-28.4" font-family="Times Roman,serif" font-size="14.00">description_id :integer</text>
<text text-anchor="start" x="336" y="-10.4" font-family="Times Roman,serif" font-size="14.00">post_id :integer</text>
</g>
<!-- Description&#45;&gt;Characteristic -->
<g id="edge2" class="edge"><title>Description&#45;&gt;Characteristic</title>
<path fill="none" stroke="#d802e3" d="M353.503,-122.497C360.095,-113.909 366.688,-105.322 372.957,-97.157"/>
<ellipse fill="none" stroke="#d802e3" cx="351.06" cy="-125.678" rx="4.00002" ry="4.00002"/>
<polygon fill="#d802e3" stroke="#d802e3" points="373.016,-97.0798 382.675,-91.8882 376.061,-93.1138 379.106,-89.1478 379.106,-89.1478 379.106,-89.1478 376.061,-93.1138 375.536,-86.4074 373.016,-97.0798 373.016,-97.0798"/>
</g>
<!-- Bodypart -->
<g id="node3" class="node"><title>Bodypart</title>
<polyline fill="none" stroke="black" points="243,-806 323,-806 "/>
<path fill="none" stroke="black" d="M323,-806C329,-806 335,-812 335,-818"/>
<polyline fill="none" stroke="black" points="335,-818 335,-864 "/>
<path fill="none" stroke="black" d="M335,-864C335,-870 329,-876 323,-876"/>
<polyline fill="none" stroke="black" points="323,-876 243,-876 "/>
<path fill="none" stroke="black" d="M243,-876C237,-876 231,-870 231,-864"/>
<polyline fill="none" stroke="black" points="231,-864 231,-818 "/>
<path fill="none" stroke="black" d="M231,-818C231,-812 237,-806 243,-806"/>
<text text-anchor="middle" x="283" y="-859.4" font-family="Times Roman,serif" font-size="14.00">Bodypart</text>
<polyline fill="none" stroke="black" points="231,-850 335,-850 "/>
<text text-anchor="start" x="239" y="-833.4" font-family="Times Roman,serif" font-size="14.00">id :integer</text>
<text text-anchor="start" x="239" y="-815.4" font-family="Times Roman,serif" font-size="14.00">name :string</text>
</g>
<!-- Post -->
<g id="node7" class="node"><title>Post</title>
<polyline fill="none" stroke="black" points="301.5,-311 442.5,-311 "/>
<path fill="none" stroke="black" d="M442.5,-311C448.5,-311 454.5,-317 454.5,-323"/>
<polyline fill="none" stroke="black" points="454.5,-323 454.5,-567 "/>
<path fill="none" stroke="black" d="M454.5,-567C454.5,-573 448.5,-579 442.5,-579"/>
<polyline fill="none" stroke="black" points="442.5,-579 301.5,-579 "/>
<path fill="none" stroke="black" d="M301.5,-579C295.5,-579 289.5,-573 289.5,-567"/>
<polyline fill="none" stroke="black" points="289.5,-567 289.5,-323 "/>
<path fill="none" stroke="black" d="M289.5,-323C289.5,-317 295.5,-311 301.5,-311"/>
<text text-anchor="middle" x="372" y="-562.4" font-family="Times Roman,serif" font-size="14.00">Post</text>
<polyline fill="none" stroke="black" points="289.5,-553 454.5,-553 "/>
<text text-anchor="start" x="297.5" y="-536.4" font-family="Times Roman,serif" font-size="14.00">id :integer</text>
<text text-anchor="start" x="297.5" y="-518.4" font-family="Times Roman,serif" font-size="14.00">title :string</text>
<text text-anchor="start" x="297.5" y="-500.4" font-family="Times Roman,serif" font-size="14.00">body :text</text>
<text text-anchor="start" x="297.5" y="-482.4" font-family="Times Roman,serif" font-size="14.00">created_at :datetime</text>
<text text-anchor="start" x="297.5" y="-464.4" font-family="Times Roman,serif" font-size="14.00">updated_at :datetime</text>
<text text-anchor="start" x="297.5" y="-446.4" font-family="Times Roman,serif" font-size="14.00">pain_level :integer</text>
<text text-anchor="start" x="297.5" y="-428.4" font-family="Times Roman,serif" font-size="14.00">description :text</text>
<text text-anchor="start" x="297.5" y="-410.4" font-family="Times Roman,serif" font-size="14.00">time :datetime</text>
<text text-anchor="start" x="297.5" y="-392.4" font-family="Times Roman,serif" font-size="14.00">comments :text</text>
<text text-anchor="start" x="297.5" y="-374.4" font-family="Times Roman,serif" font-size="14.00">meds :text</text>
<text text-anchor="start" x="297.5" y="-356.4" font-family="Times Roman,serif" font-size="14.00">non_drugs :text</text>
<text text-anchor="start" x="297.5" y="-338.4" font-family="Times Roman,serif" font-size="14.00">user_id :integer</text>
<text text-anchor="start" x="297.5" y="-320.4" font-family="Times Roman,serif" font-size="14.00">bodypart_id :integer</text>
</g>
<!-- Bodypart&#45;&gt;Post -->
<g id="edge6" class="edge"><title>Bodypart&#45;&gt;Post</title>
<path fill="none" stroke="#b185bc" d="M292.706,-797.815C303.934,-747.855 323.011,-662.972 339.64,-588.985"/>
<ellipse fill="none" stroke="#b185bc" cx="291.775" cy="-801.955" rx="4.00001" ry="4.00001"/>
<polygon fill="#b185bc" stroke="#b185bc" points="339.671,-588.846 346.254,-580.076 340.767,-583.967 341.864,-579.089 341.864,-579.089 341.864,-579.089 340.767,-583.967 337.473,-578.102 339.671,-588.846 339.671,-588.846"/>
</g>
<!-- Admin -->
<g id="node5" class="node"><title>Admin</title>
<polyline fill="none" stroke="black" points="420.5,-707 611.5,-707 "/>
<path fill="none" stroke="black" d="M611.5,-707C617.5,-707 623.5,-713 623.5,-719"/>
<polyline fill="none" stroke="black" points="623.5,-719 623.5,-963 "/>
<path fill="none" stroke="black" d="M623.5,-963C623.5,-969 617.5,-975 611.5,-975"/>
<polyline fill="none" stroke="black" points="611.5,-975 420.5,-975 "/>
<path fill="none" stroke="black" d="M420.5,-975C414.5,-975 408.5,-969 408.5,-963"/>
<polyline fill="none" stroke="black" points="408.5,-963 408.5,-719 "/>
<path fill="none" stroke="black" d="M408.5,-719C408.5,-713 414.5,-707 420.5,-707"/>
<text text-anchor="middle" x="516" y="-958.4" font-family="Times Roman,serif" font-size="14.00">Admin</text>
<polyline fill="none" stroke="black" points="408.5,-949 623.5,-949 "/>
<text text-anchor="start" x="416.5" y="-932.4" font-family="Times Roman,serif" font-size="14.00">id :integer</text>
<text text-anchor="start" x="416.5" y="-914.4" font-family="Times Roman,serif" font-size="14.00">email :string</text>
<text text-anchor="start" x="416.5" y="-896.4" font-family="Times Roman,serif" font-size="14.00">encrypted_password :string</text>
<text text-anchor="start" x="416.5" y="-878.4" font-family="Times Roman,serif" font-size="14.00">sign_in_count :integer</text>
<text text-anchor="start" x="416.5" y="-860.4" font-family="Times Roman,serif" font-size="14.00">current_sign_in_at :datetime</text>
<text text-anchor="start" x="416.5" y="-842.4" font-family="Times Roman,serif" font-size="14.00">last_sign_in_at :datetime</text>
<text text-anchor="start" x="416.5" y="-824.4" font-family="Times Roman,serif" font-size="14.00">current_sign_in_ip :string</text>
<text text-anchor="start" x="416.5" y="-806.4" font-family="Times Roman,serif" font-size="14.00">last_sign_in_ip :string</text>
<text text-anchor="start" x="416.5" y="-788.4" font-family="Times Roman,serif" font-size="14.00">failed_attempts :integer</text>
<text text-anchor="start" x="416.5" y="-770.4" font-family="Times Roman,serif" font-size="14.00">unlock_token :string</text>
<text text-anchor="start" x="416.5" y="-752.4" font-family="Times Roman,serif" font-size="14.00">locked_at :datetime</text>
<text text-anchor="start" x="416.5" y="-734.4" font-family="Times Roman,serif" font-size="14.00">created_at :datetime</text>
<text text-anchor="start" x="416.5" y="-716.4" font-family="Times Roman,serif" font-size="14.00">updated_at :datetime</text>
</g>
<!-- User -->
<g id="node6" class="node"><title>User</title>
<polyline fill="none" stroke="black" points="762,-635 992,-635 "/>
<path fill="none" stroke="black" d="M992,-635C998,-635 1004,-641 1004,-647"/>
<polyline fill="none" stroke="black" points="1004,-647 1004,-1035 "/>
<path fill="none" stroke="black" d="M1004,-1035C1004,-1041 998,-1047 992,-1047"/>
<polyline fill="none" stroke="black" points="992,-1047 762,-1047 "/>
<path fill="none" stroke="black" d="M762,-1047C756,-1047 750,-1041 750,-1035"/>
<polyline fill="none" stroke="black" points="750,-1035 750,-647 "/>
<path fill="none" stroke="black" d="M750,-647C750,-641 756,-635 762,-635"/>
<text text-anchor="middle" x="877" y="-1030.4" font-family="Times Roman,serif" font-size="14.00">User</text>
<polyline fill="none" stroke="black" points="750,-1021 1004,-1021 "/>
<text text-anchor="start" x="758" y="-1004.4" font-family="Times Roman,serif" font-size="14.00">id :integer</text>
<text text-anchor="start" x="758" y="-986.4" font-family="Times Roman,serif" font-size="14.00">email :string</text>
<text text-anchor="start" x="758" y="-968.4" font-family="Times Roman,serif" font-size="14.00">encrypted_password :string</text>
<text text-anchor="start" x="758" y="-950.4" font-family="Times Roman,serif" font-size="14.00">reset_password_token :string</text>
<text text-anchor="start" x="758" y="-932.4" font-family="Times Roman,serif" font-size="14.00">reset_password_sent_at :datetime</text>
<text text-anchor="start" x="758" y="-914.4" font-family="Times Roman,serif" font-size="14.00">remember_created_at :datetime</text>
<text text-anchor="start" x="758" y="-896.4" font-family="Times Roman,serif" font-size="14.00">sign_in_count :integer</text>
<text text-anchor="start" x="758" y="-878.4" font-family="Times Roman,serif" font-size="14.00">current_sign_in_at :datetime</text>
<text text-anchor="start" x="758" y="-860.4" font-family="Times Roman,serif" font-size="14.00">last_sign_in_at :datetime</text>
<text text-anchor="start" x="758" y="-842.4" font-family="Times Roman,serif" font-size="14.00">current_sign_in_ip :inet</text>
<text text-anchor="start" x="758" y="-824.4" font-family="Times Roman,serif" font-size="14.00">last_sign_in_ip :inet</text>
<text text-anchor="start" x="758" y="-806.4" font-family="Times Roman,serif" font-size="14.00">created_at :datetime</text>
<text text-anchor="start" x="758" y="-788.4" font-family="Times Roman,serif" font-size="14.00">updated_at :datetime</text>
<text text-anchor="start" x="758" y="-770.4" font-family="Times Roman,serif" font-size="14.00">city :string</text>
<text text-anchor="start" x="758" y="-752.4" font-family="Times Roman,serif" font-size="14.00">sex :boolean</text>
<text text-anchor="start" x="758" y="-734.4" font-family="Times Roman,serif" font-size="14.00">about :text</text>
<text text-anchor="start" x="758" y="-716.4" font-family="Times Roman,serif" font-size="14.00">layout_name :string</text>
<text text-anchor="start" x="758" y="-698.4" font-family="Times Roman,serif" font-size="14.00">custom_layout :text</text>
<text text-anchor="start" x="758" y="-680.4" font-family="Times Roman,serif" font-size="14.00">forem_admin :boolean</text>
<text text-anchor="start" x="758" y="-662.4" font-family="Times Roman,serif" font-size="14.00">forem_state :string</text>
<text text-anchor="start" x="758" y="-644.4" font-family="Times Roman,serif" font-size="14.00">forem_auto_subscribe :boolean</text>
</g>
<!-- User&#45;&gt;Post -->
<g id="edge14" class="edge"><title>User&#45;&gt;Post</title>
<path fill="none" stroke="#d6dafa" d="M743.536,-725.212C707.741,-694.994 668.761,-662.829 632,-634 576.885,-590.777 513.315,-544.506 462.83,-508.565"/>
<ellipse fill="none" stroke="#d6dafa" cx="746.661" cy="-727.854" rx="4.00002" ry="4.00002"/>
<polygon fill="#d6dafa" stroke="#d6dafa" points="462.675,-508.455 457.131,-498.993 458.599,-505.558 454.524,-502.661 454.524,-502.661 454.524,-502.661 458.599,-505.558 451.917,-506.329 462.675,-508.455 462.675,-508.455"/>
</g>
<!-- Forem::Post -->
<g id="node17" class="node"><title>Forem::Post</title>
<ellipse fill="none" stroke="black" cx="1316" cy="-445" rx="68.7979" ry="18.3848"/>
<text text-anchor="middle" x="1316" y="-441.4" font-family="Times Roman,serif" font-size="14.00">Forem::Post</text>
</g>
<!-- User&#45;&gt;Forem::Post -->
<g id="edge16" class="edge"><title>User&#45;&gt;Forem::Post</title>
<path fill="none" stroke="#6a393d" d="M1011.32,-763.328C1084.32,-716.623 1172.73,-652.294 1238,-580 1267.5,-547.327 1290.99,-501.69 1304.21,-472.742"/>
<ellipse fill="none" stroke="#6a393d" cx="1007.68" cy="-765.645" rx="4.00002" ry="4.00002"/>
<polygon fill="#6a393d" stroke="#6a393d" points="1304.21,-472.738 1312.4,-465.444 1306.25,-468.173 1308.29,-463.608 1308.29,-463.608 1308.29,-463.608 1306.25,-468.173 1304.18,-461.772 1304.21,-472.738 1304.21,-472.738"/>
<text text-anchor="middle" x="1255" y="-603.4" font-family="Times Roman,serif" font-size="14.00">forem_posts</text>
</g>
<!-- Forem::Topic -->
<g id="node19" class="node"><title>Forem::Topic</title>
<ellipse fill="none" stroke="black" cx="751" cy="-445" rx="72.1249" ry="18.3848"/>
<text text-anchor="middle" x="751" y="-441.4" font-family="Times Roman,serif" font-size="14.00">Forem::Topic</text>
</g>
<!-- User&#45;&gt;Forem::Topic -->
<g id="edge18" class="edge"><title>User&#45;&gt;Forem::Topic</title>
<path fill="none" stroke="#5c3603" d="M808.929,-627.064C789.456,-565.861 770.633,-506.703 759.967,-473.182"/>
<ellipse fill="none" stroke="#5c3603" cx="810.204" cy="-631.069" rx="4.00001" ry="4.00001"/>
<polygon fill="#5c3603" stroke="#5c3603" points="759.959,-473.158 761.215,-462.264 758.443,-468.393 756.927,-463.629 756.927,-463.629 756.927,-463.629 758.443,-468.393 752.639,-464.993 759.959,-473.158 759.959,-473.158"/>
<text text-anchor="middle" x="846" y="-603.4" font-family="Times Roman,serif" font-size="14.00">forem_topics</text>
</g>
<!-- Forem::Membership -->
<g id="node21" class="node"><title>Forem::Membership</title>
<ellipse fill="none" stroke="black" cx="948" cy="-445" rx="106.98" ry="18.3848"/>
<text text-anchor="middle" x="948" y="-441.4" font-family="Times Roman,serif" font-size="14.00">Forem::Membership</text>
</g>
<!-- User&#45;&gt;Forem::Membership -->
<g id="edge20" class="edge"><title>User&#45;&gt;Forem::Membership</title>
<path fill="none" stroke="#f189db" d="M915.431,-626.653C926.333,-565.847 936.864,-507.112 942.873,-473.595"/>
<ellipse fill="none" stroke="#f189db" cx="914.662" cy="-630.944" rx="4.00001" ry="4.00001"/>
<polygon fill="#f189db" stroke="#f189db" points="942.895,-473.472 949.089,-464.423 943.778,-468.55 944.66,-463.629 944.66,-463.629 944.66,-463.629 943.778,-468.55 940.231,-462.834 942.895,-473.472 942.895,-473.472"/>
<text text-anchor="middle" x="987.5" y="-603.4" font-family="Times Roman,serif" font-size="14.00">forem_memberships</text>
</g>
<!-- Forem::Group -->
<g id="node23" class="node"><title>Forem::Group</title>
<ellipse fill="none" stroke="black" cx="1151" cy="-445" rx="77.9889" ry="18.3848"/>
<text text-anchor="middle" x="1151" y="-441.4" font-family="Times Roman,serif" font-size="14.00">Forem::Group</text>
</g>
<!-- User&#45;&gt;Forem::Group -->
<g id="edge22" class="edge"><title>User&#45;&gt;Forem::Group</title>
<path fill="none" stroke="#e91b1a" d="M1010.38,-686.059C1028.15,-663.116 1045.55,-639.333 1061,-616 1092.78,-568.014 1122.39,-507.544 1138.46,-472.875"/>
<polygon fill="#e91b1a" stroke="#e91b1a" points="1010.24,-686.251 1000.54,-691.371 1007.16,-690.194 1004.09,-694.138 1004.09,-694.138 1004.09,-694.138 1007.16,-690.194 1007.64,-696.904 1010.24,-686.251 1010.24,-686.251"/>
<polygon fill="#e91b1a" stroke="#e91b1a" points="1138.64,-472.487 1146.9,-465.278 1140.72,-467.943 1142.81,-463.4 1142.81,-463.4 1142.81,-463.4 1140.72,-467.943 1138.72,-461.521 1138.64,-472.487 1138.64,-472.487"/>
<text text-anchor="middle" x="1119" y="-603.4" font-family="Times Roman,serif" font-size="14.00">forem_groups</text>
</g>
<!-- Post&#45;&gt;Description -->
<g id="edge28" class="edge"><title>Post&#45;&gt;Description</title>
<path fill="none" stroke="#f7a4e8" d="M319.448,-300.838C317.376,-294.143 315.359,-287.537 313.426,-281.104"/>
<polygon fill="#f7a4e8" stroke="#f7a4e8" points="319.538,-301.126 318.216,-312.012 321.025,-305.9 322.513,-310.673 322.513,-310.673 322.513,-310.673 321.025,-305.9 326.809,-309.334 319.538,-301.126 319.538,-301.126"/>
<polygon fill="#f7a4e8" stroke="#f7a4e8" points="313.315,-280.732 314.771,-269.863 311.887,-275.94 310.459,-271.148 310.459,-271.148 310.459,-271.148 311.887,-275.94 306.146,-272.434 313.315,-280.732 313.315,-280.732"/>
</g>
<!-- Post&#45;&gt;Description -->
<g id="edge34" class="edge"><title>Post&#45;&gt;Description</title>
<path fill="none" stroke="#06e555" d="M332.862,-301.154C330.596,-294.226 328.331,-287.391 326.095,-280.744"/>
<polygon fill="#06e555" stroke="#06e555" points="332.865,-301.163 331.677,-312.064 334.411,-305.918 335.957,-310.673 335.957,-310.673 335.957,-310.673 334.411,-305.918 340.236,-309.282 332.865,-301.163 332.865,-301.163"/>
<polygon fill="#06e555" stroke="#06e555" points="326.053,-280.619 327.106,-269.704 324.448,-275.884 322.844,-271.148 322.844,-271.148 322.844,-271.148 324.448,-275.884 318.582,-272.592 326.053,-280.619 326.053,-280.619"/>
</g>
<!-- Post&#45;&gt;Characteristic -->
<g id="edge26" class="edge"><title>Post&#45;&gt;Characteristic</title>
<path fill="none" stroke="#8487af" d="M380.082,-302.802C386.664,-232.309 395.529,-151.335 402.642,-99.2382"/>
<ellipse fill="none" stroke="#8487af" cx="379.695" cy="-306.988" rx="4" ry="4"/>
<polygon fill="#8487af" stroke="#8487af" points="402.659,-99.1196 408.497,-89.8372 403.349,-94.1676 404.04,-89.2155 404.04,-89.2155 404.04,-89.2155 403.349,-94.1676 399.583,-88.5938 402.659,-99.1196 402.659,-99.1196"/>
</g>
<!-- Post&#45;&gt;Characteristic -->
<g id="edge32" class="edge"><title>Post&#45;&gt;Characteristic</title>
<path fill="none" stroke="#3f7c60" d="M393.068,-302.802C400.937,-232.309 408.672,-151.335 412.239,-99.2382"/>
<ellipse fill="none" stroke="#3f7c60" cx="392.597" cy="-306.996" rx="4.00001" ry="4.00001"/>
<polygon fill="#3f7c60" stroke="#3f7c60" points="412.242,-99.1941 417.386,-89.5097 412.569,-94.2048 412.896,-89.2155 412.896,-89.2155 412.896,-89.2155 412.569,-94.2048 408.405,-88.9213 412.242,-99.1941 412.242,-99.1941"/>
</g>
<!-- ActiveRecord::Base -->
<g id="node9" class="node"><title>ActiveRecord::Base</title>
<ellipse fill="none" stroke="black" cx="372" cy="-1133" rx="104.151" ry="18.3848"/>
<text text-anchor="middle" x="372" y="-1129.4" font-family="Times Roman,serif" font-size="14.00">ActiveRecord::Base</text>
</g>
<!-- ActiveRecord::Base&#45;&gt;Description -->
<g id="edge4" class="edge"><title>ActiveRecord::Base&#45;&gt;Description</title>
<path fill="none" stroke="black" d="M331.858,-1115.84C291.735,-1097.77 234.282,-1069.08 222,-1048 74.4281,-794.757 198.798,-424.79 262.266,-271.064"/>
</g>
<!-- ActiveRecord::Base&#45;&gt;Bodypart -->
<g id="edge8" class="edge"><title>ActiveRecord::Base&#45;&gt;Bodypart</title>
<path fill="none" stroke="black" d="M365.072,-1114.32C360.351,-1101.38 354.063,-1083.72 349,-1068 327.3,-1000.61 304.877,-920.971 292.559,-876.188"/>
</g>
<!-- ActiveRecord::Base&#45;&gt;Characteristic -->
<g id="edge10" class="edge"><title>ActiveRecord::Base&#45;&gt;Characteristic</title>
<path fill="none" stroke="black" d="M441.721,-1119.2C510.27,-1104.12 608.017,-1078.08 632,-1048 689.601,-975.768 651,-933.387 651,-841 651,-841 651,-841 651,-200 651,-124.803 566.543,-84.1925 498.251,-63.6465"/>
</g>
<!-- ActiveRecord::Base&#45;&gt;Admin -->
<g id="edge12" class="edge"><title>ActiveRecord::Base&#45;&gt;Admin</title>
<path fill="none" stroke="black" d="M381.227,-1114.29C395.225,-1085.91 423.036,-1029.51 449.777,-975.286"/>
</g>
<!-- ActiveRecord::Base&#45;&gt;User -->
<g id="edge24" class="edge"><title>ActiveRecord::Base&#45;&gt;User</title>
<path fill="none" stroke="black" d="M450.827,-1120.92C524.715,-1108.64 629.03,-1088.54 665,-1068 695.436,-1050.62 724.084,-1027.43 749.889,-1002.5"/>
</g>
<!-- ActiveRecord::Base&#45;&gt;Post -->
<g id="edge30" class="edge"><title>ActiveRecord::Base&#45;&gt;Post</title>
<path fill="none" stroke="black" d="M369.6,-1114.24C365.132,-1038.59 364.106,-751.766 366.521,-579.114"/>
</g>
<!-- ActiveRecord::Base&#45;&gt;Post -->
<g id="edge36" class="edge"><title>ActiveRecord::Base&#45;&gt;Post</title>
<path fill="none" stroke="black" d="M374.4,-1114.24C378.868,-1038.59 379.894,-751.766 377.479,-579.114"/>
</g>
</g>
</svg>
