<?xml version="1.0" encoding="UTF-8" standalone="no"?>
<!DOCTYPE svg PUBLIC "-//W3C//DTD SVG 1.1//EN"
 "http://www.w3.org/Graphics/SVG/1.1/DTD/svg11.dtd">
<!-- Generated by graphviz version 2.26.3 (20100126.1600)
 -->
<!-- Title: models_diagram Pages: 1 -->
<svg width="1263pt" height="422pt"
 viewBox="0.00 0.00 1263.00 422.00" xmlns="http://www.w3.org/2000/svg" xmlns:xlink="http://www.w3.org/1999/xlink">
<g id="graph1" class="graph" transform="scale(1 1) rotate(0) translate(4 418)">
<title>models_diagram</title>
<polygon fill="white" stroke="white" points="-4,5 -4,-418 1260,-418 1260,5 -4,5"/>
<!-- _diagram_info -->
<g id="node1" class="node"><title>_diagram_info</title>
<text text-anchor="start" x="8" y="-397.8" font-family="Times Roman,serif" font-size="13.00">Models diagram</text>
<text text-anchor="start" x="8" y="-380.8" font-family="Times Roman,serif" font-size="13.00">Date: Apr 02 2015 &#45; 10:36</text>
<text text-anchor="start" x="8" y="-363.8" font-family="Times Roman,serif" font-size="13.00">Migration version: 20150401205224</text>
<text text-anchor="start" x="8" y="-346.8" font-family="Times Roman,serif" font-size="13.00">Generated by RailRoady 1.3.0</text>
<text text-anchor="start" x="8" y="-329.8" font-family="Times Roman,serif" font-size="13.00">http://railroady.prestonlee.com</text>
</g>
<!-- Description -->
<g id="node2" class="node"><title>Description</title>
<ellipse fill="none" stroke="black" cx="340" cy="-95" rx="67.1751" ry="18.3848"/>
<text text-anchor="middle" x="340" y="-91.4" font-family="Times Roman,serif" font-size="14.00">Description</text>
</g>
<!-- Characteristic -->
<g id="node4" class="node"><title>Characteristic</title>
<ellipse fill="none" stroke="black" cx="444" cy="-19" rx="79.196" ry="18.3848"/>
<text text-anchor="middle" x="444" y="-15.4" font-family="Times Roman,serif" font-size="14.00">Characteristic</text>
</g>
<!-- Description&#45;&gt;Characteristic -->
<g id="edge2" class="edge"><title>Description&#45;&gt;Characteristic</title>
<path fill="none" stroke="#a83587" d="M370.397,-72.7866C383.33,-63.3358 398.431,-52.3005 411.577,-42.6937"/>
<ellipse fill="none" stroke="#a83587" cx="367.089" cy="-75.204" rx="4.00002" ry="4.00002"/>
<polygon fill="#a83587" stroke="#a83587" points="411.817,-42.5182 422.546,-40.2513 415.854,-39.5681 419.891,-36.618 419.891,-36.618 419.891,-36.618 415.854,-39.5681 417.236,-32.9847 411.817,-42.5182 411.817,-42.5182"/>
</g>
<!-- Bodypart -->
<g id="node3" class="node"><title>Bodypart</title>
<ellipse fill="none" stroke="black" cx="279" cy="-263" rx="56.0679" ry="18.3848"/>
<text text-anchor="middle" x="279" y="-259.4" font-family="Times Roman,serif" font-size="14.00">Bodypart</text>
</g>
<!-- Post -->
<g id="node7" class="node"><title>Post</title>
<ellipse fill="none" stroke="black" cx="372" cy="-171" rx="32.0265" ry="18.3848"/>
<text text-anchor="middle" x="372" y="-167.4" font-family="Times Roman,serif" font-size="14.00">Post</text>
</g>
<!-- Bodypart&#45;&gt;Post -->
<g id="edge6" class="edge"><title>Bodypart&#45;&gt;Post</title>
<path fill="none" stroke="#8c6425" d="M302.784,-239.472C316.768,-225.638 334.386,-208.21 348.347,-194.399"/>
<ellipse fill="none" stroke="#8c6425" cx="299.775" cy="-242.448" rx="4.00002" ry="4.00002"/>
<polygon fill="#8c6425" stroke="#8c6425" points="348.572,-194.176 358.846,-190.343 352.126,-190.66 355.681,-187.144 355.681,-187.144 355.681,-187.144 352.126,-190.66 352.516,-183.944 348.572,-194.176 348.572,-194.176"/>
</g>
<!-- Admin -->
<g id="node5" class="node"><title>Admin</title>
<ellipse fill="none" stroke="black" cx="451" cy="-263" rx="41.9273" ry="18.3848"/>
<text text-anchor="middle" x="451" y="-259.4" font-family="Times Roman,serif" font-size="14.00">Admin</text>
</g>
<!-- User -->
<g id="node6" class="node"><title>User</title>
<ellipse fill="none" stroke="black" cx="719" cy="-263" rx="33.9411" ry="18.3848"/>
<text text-anchor="middle" x="719" y="-259.4" font-family="Times Roman,serif" font-size="14.00">User</text>
</g>
<!-- User&#45;&gt;Post -->
<g id="edge14" class="edge"><title>User&#45;&gt;Post</title>
<path fill="none" stroke="#d82aa5" d="M680.46,-252.782C613.85,-235.121 477.912,-199.08 410.991,-181.338"/>
<ellipse fill="none" stroke="#d82aa5" cx="684.34" cy="-253.81" rx="4.00001" ry="4.00001"/>
<polygon fill="#d82aa5" stroke="#d82aa5" points="410.915,-181.318 402.402,-174.405 406.082,-180.036 401.249,-178.755 401.249,-178.755 401.249,-178.755 406.082,-180.036 400.095,-183.104 410.915,-181.318 410.915,-181.318"/>
</g>
<!-- Forem::Post -->
<g id="node17" class="node"><title>Forem::Post</title>
<ellipse fill="none" stroke="black" cx="1186" cy="-171" rx="68.7979" ry="18.3848"/>
<text text-anchor="middle" x="1186" y="-167.4" font-family="Times Roman,serif" font-size="14.00">Forem::Post</text>
</g>
<!-- User&#45;&gt;Forem::Post -->
<g id="edge16" class="edge"><title>User&#45;&gt;Forem::Post</title>
<path fill="none" stroke="#621a88" d="M761.244,-260.146C840.354,-254.524 1007.91,-241.233 1064,-226 1092.9,-218.152 1123.62,-204.264 1147.01,-192.408"/>
<ellipse fill="none" stroke="#621a88" cx="756.949" cy="-260.448" rx="4" ry="4"/>
<polygon fill="#621a88" stroke="#621a88" points="1147.03,-192.399 1157.98,-191.812 1151.47,-190.106 1155.91,-187.813 1155.91,-187.813 1155.91,-187.813 1151.47,-190.106 1153.85,-183.814 1147.03,-192.399 1147.03,-192.399"/>
<text text-anchor="middle" x="1154" y="-213.4" font-family="Times Roman,serif" font-size="14.00">forem_posts</text>
</g>
<!-- Forem::Topic -->
<g id="node19" class="node"><title>Forem::Topic</title>
<ellipse fill="none" stroke="black" cx="621" cy="-171" rx="72.1249" ry="18.3848"/>
<text text-anchor="middle" x="621" y="-167.4" font-family="Times Roman,serif" font-size="14.00">Forem::Topic</text>
</g>
<!-- User&#45;&gt;Forem::Topic -->
<g id="edge18" class="edge"><title>User&#45;&gt;Forem::Topic</title>
<path fill="none" stroke="#fe1ce8" d="M695.969,-241.379C681.525,-227.82 662.849,-210.287 647.751,-196.113"/>
<ellipse fill="none" stroke="#fe1ce8" cx="699.013" cy="-244.237" rx="4.00002" ry="4.00002"/>
<polygon fill="#fe1ce8" stroke="#fe1ce8" points="647.514,-195.89 643.303,-185.765 643.868,-192.468 640.223,-189.046 640.223,-189.046 640.223,-189.046 643.868,-192.468 637.143,-192.327 647.514,-195.89 647.514,-195.89"/>
<text text-anchor="middle" x="722" y="-213.4" font-family="Times Roman,serif" font-size="14.00">forem_topics</text>
</g>
<!-- Forem::Membership -->
<g id="node21" class="node"><title>Forem::Membership</title>
<ellipse fill="none" stroke="black" cx="818" cy="-171" rx="106.98" ry="18.3848"/>
<text text-anchor="middle" x="818" y="-167.4" font-family="Times Roman,serif" font-size="14.00">Forem::Membership</text>
</g>
<!-- User&#45;&gt;Forem::Membership -->
<g id="edge20" class="edge"><title>User&#45;&gt;Forem::Membership</title>
<path fill="none" stroke="#1d51fe" d="M747.683,-243.922C755.211,-238.457 763.138,-232.271 770,-226 779.479,-217.337 788.973,-206.916 796.987,-197.486"/>
<ellipse fill="none" stroke="#1d51fe" cx="744.186" cy="-246.404" rx="4.00002" ry="4.00002"/>
<polygon fill="#1d51fe" stroke="#1d51fe" points="797.215,-197.211 807.069,-192.4 800.412,-193.367 803.609,-189.522 803.609,-189.522 803.609,-189.522 800.412,-193.367 800.15,-186.645 797.215,-197.211 797.215,-197.211"/>
<text text-anchor="middle" x="855.5" y="-213.4" font-family="Times Roman,serif" font-size="14.00">forem_memberships</text>
</g>
<!-- Forem::Group -->
<g id="node23" class="node"><title>Forem::Group</title>
<ellipse fill="none" stroke="black" cx="1021" cy="-171" rx="77.9889" ry="18.3848"/>
<text text-anchor="middle" x="1021" y="-167.4" font-family="Times Roman,serif" font-size="14.00">Forem::Group</text>
</g>
<!-- User&#45;&gt;Forem::Group -->
<g id="edge22" class="edge"><title>User&#45;&gt;Forem::Group</title>
<path fill="none" stroke="#33ce43" d="M763.306,-259.896C806.671,-255.779 874.037,-246.476 929,-226 949.938,-218.2 971.474,-205.617 988.44,-194.455"/>
<polygon fill="#33ce43" stroke="#33ce43" points="763.049,-259.919 752.687,-256.33 758.069,-260.365 753.089,-260.812 753.089,-260.812 753.089,-260.812 758.069,-260.365 753.491,-265.294 763.049,-259.919 763.049,-259.919"/>
<polygon fill="#33ce43" stroke="#33ce43" points="988.574,-194.365 999.382,-192.512 992.721,-191.572 996.869,-188.78 996.869,-188.78 996.869,-188.78 992.721,-191.572 994.356,-185.047 988.574,-194.365 988.574,-194.365"/>
<text text-anchor="middle" x="1013" y="-213.4" font-family="Times Roman,serif" font-size="14.00">forem_groups</text>
</g>
<!-- Post&#45;&gt;Description -->
<g id="edge28" class="edge"><title>Post&#45;&gt;Description</title>
<path fill="none" stroke="#83a64e" d="M354.497,-144.76C351.227,-137.844 348.04,-130.352 345.377,-123.331"/>
<polygon fill="#83a64e" stroke="#83a64e" points="354.519,-144.803 354.95,-155.761 356.748,-149.279 358.978,-153.754 358.978,-153.754 358.978,-153.754 356.748,-149.279 363.006,-151.748 354.519,-144.803 354.519,-144.803"/>
<polygon fill="#83a64e" stroke="#83a64e" points="345.236,-122.933 346.146,-112.005 343.57,-118.219 341.903,-113.505 341.903,-113.505 341.903,-113.505 343.57,-118.219 337.66,-115.005 345.236,-122.933 345.236,-122.933"/>
</g>
<!-- Post&#45;&gt;Description -->
<g id="edge34" class="edge"><title>Post&#45;&gt;Description</title>
<path fill="none" stroke="#f201d7" d="M366.666,-142.784C364.16,-136.165 361.184,-129.121 358.11,-122.533"/>
<polygon fill="#f201d7" stroke="#f201d7" points="366.668,-142.787 365.764,-153.716 368.337,-147.5 370.006,-152.213 370.006,-152.213 370.006,-152.213 368.337,-147.5 374.248,-150.711 366.668,-142.787 366.668,-142.787"/>
<polygon fill="#f201d7" stroke="#f201d7" points="357.987,-122.284 357.617,-111.324 355.783,-117.796 353.578,-113.308 353.578,-113.308 353.578,-113.308 355.783,-117.796 349.539,-115.292 357.987,-122.284 357.987,-122.284"/>
</g>
<!-- Post&#45;&gt;Characteristic -->
<g id="edge26" class="edge"><title>Post&#45;&gt;Characteristic</title>
<path fill="none" stroke="#56b03c" d="M385.676,-146.546C392.879,-136.935 401.146,-125.468 407,-114 417.802,-92.8404 425.1,-66.8481 430.945,-47.4034"/>
<ellipse fill="none" stroke="#56b03c" cx="383.076" cy="-149.995" rx="4.00002" ry="4.00002"/>
<polygon fill="#56b03c" stroke="#56b03c" points="431.016,-47.1744 438.267,-38.9483 432.492,-42.3972 433.968,-37.62 433.968,-37.62 433.968,-37.62 432.492,-42.3972 429.668,-36.2916 431.016,-47.1744 431.016,-47.1744"/>
</g>
<!-- Post&#45;&gt;Characteristic -->
<g id="edge32" class="edge"><title>Post&#45;&gt;Characteristic</title>
<path fill="none" stroke="#5e359f" d="M398.673,-150.805C408.303,-140.432 418.253,-127.217 425,-114 435.752,-92.9379 443.033,-67.0875 446.073,-47.6727"/>
<ellipse fill="none" stroke="#5e359f" cx="395.858" cy="-153.697" rx="4.00002" ry="4.00002"/>
<polygon fill="#5e359f" stroke="#5e359f" points="446.089,-47.5438 451.787,-38.1744 446.705,-42.5819 447.321,-37.62 447.321,-37.62 447.321,-37.62 446.705,-42.5819 442.855,-37.0655 446.089,-47.5438 446.089,-47.5438"/>
</g>
<!-- ActiveRecord::Base -->
<g id="node9" class="node"><title>ActiveRecord::Base</title>
<ellipse fill="none" stroke="black" cx="372" cy="-367" rx="104.151" ry="18.3848"/>
<text text-anchor="middle" x="372" y="-363.4" font-family="Times Roman,serif" font-size="14.00">ActiveRecord::Base</text>
</g>
<!-- ActiveRecord::Base&#45;&gt;Description -->
<g id="edge4" class="edge"><title>ActiveRecord::Base&#45;&gt;Description</title>
<path fill="none" stroke="black" d="M329.361,-349.961C287.145,-332.118 226.982,-303.725 214,-282 175.445,-217.479 265.598,-144.552 313.084,-112.121"/>
</g>
<!-- ActiveRecord::Base&#45;&gt;Bodypart -->
<g id="edge8" class="edge"><title>ActiveRecord::Base&#45;&gt;Bodypart</title>
<path fill="none" stroke="black" d="M355.373,-348.407C338.341,-329.36 312.036,-299.943 295.171,-281.084"/>
</g>
<!-- ActiveRecord::Base&#45;&gt;Characteristic -->
<g id="edge10" class="edge"><title>ActiveRecord::Base&#45;&gt;Characteristic</title>
<path fill="none" stroke="black" d="M430.461,-351.561C472.204,-336.594 521,-309.215 521,-263 521,-263 521,-263 521,-95 521,-68.8917 498.299,-48.7295 477.549,-35.7533"/>
</g>
<!-- ActiveRecord::Base&#45;&gt;Admin -->
<g id="edge12" class="edge"><title>ActiveRecord::Base&#45;&gt;Admin</title>
<path fill="none" stroke="black" d="M386.124,-348.407C400.681,-329.243 423.212,-299.582 437.526,-280.738"/>
</g>
<!-- ActiveRecord::Base&#45;&gt;User -->
<g id="edge24" class="edge"><title>ActiveRecord::Base&#45;&gt;User</title>
<path fill="none" stroke="black" d="M425.458,-350.978C499.411,-328.813 630.435,-289.544 689.121,-271.955"/>
</g>
<!-- ActiveRecord::Base&#45;&gt;Post -->
<g id="edge30" class="edge"><title>ActiveRecord::Base&#45;&gt;Post</title>
<path fill="none" stroke="black" d="M367.821,-348.207C364.382,-310.647 364.393,-226.725 367.853,-189.45"/>
</g>
<!-- ActiveRecord::Base&#45;&gt;Post -->
<g id="edge36" class="edge"><title>ActiveRecord::Base&#45;&gt;Post</title>
<path fill="none" stroke="black" d="M376.179,-348.207C379.618,-310.647 379.607,-226.725 376.147,-189.45"/>
</g>
</g>
</svg>
